<svg xmlns="http://www.w3.org/2000/svg" viewBox="0 0 612 612" width="612" height="612" role="img" aria-label="
a╦╦õ">
  <rect width="612" height="612" rx="28" fill="#ebe5d4"/>
  <rect x="48" y="48" width="516" height="516" fill="#e0d8c2" stroke="#c9bfa3" stroke-width="2"/>
  <!-- board grid 9x10 points Æ 8x9 cells between -->
  <g stroke="#6a5840" stroke-width="1.5" fill="none" opacity="0.55">
    <!-- verticals -->
    <path d="M96 80 V532"/>
    <path d="M156 80 V532"/>
    <path d="M216 80 V532"/>
    <path d="M276 80 V532"/>
    <path d="M336 80 V532"/>
    <path d="M396 80 V532"/>
    <path d="M456 80 V532"/>
    <path d="M516 80 V532"/>
    <!-- horizontals -->
    <path d="M96 80 H516"/>
    <path d="M96 130.2 H516"/>
    <path d="M96 180.4 H516"/>
    <path d="M96 230.6 H516"/>
    <path d="M96 280.8 H516"/>
    <path d="M96 331 H516"/>
    <path d="M96 381.2 H516"/>
    <path d="M96 431.4 H516"/>
    <path d="M96 481.6 H516"/>
    <path d="M96 532 H516"/>
    <!-- palace diagonals -->
    <path d="M276 80 L336 180.4 M336 80 L276 180.4"/>
    <path d="M276 431.4 L336 532 M336 431.4 L276 532"/>
  </g>
  <text x="306" y="318" text-anchor="middle" font-family="Georgia, serif" font-size="22" fill="#75603e" letter-spacing="8">Z│ "L</text>
  <!-- sample pieces -->
  <circle cx="276" cy="532" r="22" fill="#f3ecda" stroke="#7a2e1e" stroke-width="1.5"/>
  <text x="276" y="539" text-anchor="middle" font-family="Noto Serif HK, Georgia, serif" font-size="20" font-weight="600" fill="#7a2e1e">%</text>
  <circle cx="336" cy="80" r="22" fill="#f3ecda" stroke="#2a241c" stroke-width="1.5"/>
  <text x="336" y="87" text-anchor="middle" font-family="Noto Serif HK, Georgia, serif" font-size="20" font-weight="600" fill="#2a241c"></text>
  <circle cx="96" cy="532" r="22" fill="#f3ecda" stroke="#7a2e1e" stroke-width="1.5"/>
  <text x="96" y="539" text-anchor="middle" font-family="Noto Serif HK, Georgia, serif" font-size="18" font-weight="600" fill="#7a2e1e">Õ</text>
  <circle cx="516" cy="80" r="22" fill="#f3ecda" stroke="#2a241c" stroke-width="1.5"/>
  <text x="516" y="87" text-anchor="middle" font-family="Noto Serif HK, Georgia, serif" font-size="18" font-weight="600" fill="#2a241c">╩</text>
</svg>
